Coordinates
version=1
nRows=16
nColumns=28
inDegrees=yes

Units are S.I. units (second, meters, Newtons, ...)
Angles are in degrees.

endheader
time	pelvis_tilt	pelvis_list	pelvis_rotation	pelvis_tx	pelvis_ty	pelvis_tz	hip_flexion_r	hip_adduction_r	hip_rotation_r	knee_angle_r	ankle_angle_r	subtalar_angle_r	mtp_angle_r	hip_flexion_l	hip_adduction_l	hip_rotation_l	knee_angle_l	socket_flexion	socket_adduction	socket_rotation	socket_tx	socket_ty	socket_tz	foot_flex	lumbar_extension	lumbar_bending	lumbar_rotation
      0.80000000	     -3.65362565	     -6.64151511	      6.41935756	      0.36566466	      0.97823114	      0.24929139	     13.21211182	     11.98843682	      4.51397012	    -23.21913662	      1.56628982	    -23.55867068	      3.15050746	     25.88364554	     -9.60177262	     -5.78614384	    -66.44540057	      3.24364151	     -9.03000607	    -10.57282648	      0.00000000	      0.00721698	      0.00000000	     -1.21738712	     -5.81824880	      5.83439601	    -11.20947448
      0.80416667	     -3.69363847	     -6.42764981	      6.40200128	      0.37103492	      0.97944768	      0.24878948	     12.62455994	     11.74987273	      4.64479387	    -22.78493506	      1.55390747	    -23.46984232	      3.21679797	     26.74855828	     -9.16854042	     -5.59548272	    -66.44434653	      3.17718515	     -9.02936733	     -9.84250188	      0.00000000	      0.00789001	      0.00000000	     -1.24080046	     -5.83863808	      5.64462983	    -11.04918996
      0.80833333	     -3.75420351	     -6.22433165	      6.42635506	      0.37657887	      0.98062587	      0.24816025	     12.02176386	     11.49245904	      4.68174106	    -22.27974657	      1.45075015	    -23.37425798	      3.29357448	     27.60237810	     -8.73526662	     -5.43651009	    -66.39234902	      3.05748439	     -9.08855813	     -9.13105598	      0.00000000	      0.00856586	      0.00000000	     -1.25881087	     -5.79681976	      5.46360855	    -10.84252980
      0.81250000	     -3.78813307	     -6.02032414	      6.39580858	      0.38192780	      0.98177807	      0.24770699	     11.44830961	     11.26747305	      4.80092882	    -21.87267681	      1.39804396	    -23.29444898	      3.34709298	     28.40901597	     -8.31126789	     -5.22100237	    -66.28357314	      2.95523695	     -9.04816763	     -8.51844415	      0.00000000	      0.00920444	      0.00000000	     -1.28850088	     -5.81684077	      5.28441316	    -10.68239307
      0.81666667	     -3.84774658	     -5.82591659	      6.42985923	      0.38755945	      0.98293603	      0.24703090	     10.82458775	     11.01141192	      4.80927383	    -21.32741326	      1.23849810	    -23.21810724	      3.41932985	     29.19722770	     -7.87510662	     -5.06159076	    -66.10909184	      2.78211977	     -9.10093208	     -7.99017251	      0.00000000	      0.00986834	      0.00000000	     -1.29906955	     -5.75845639	      5.11911131	    -10.45784430
      0.82083333	     -3.88248339	     -5.63105567	      6.42058487	      0.39308493	      0.98409288	      0.24646651	     10.21333023	     10.77610034	      4.86485092	    -20.85030765	      1.07967998	    -23.16614090	      3.50357980	     29.93977468	     -7.44458346	     -4.86178677	    -65.89115230	      2.61008995	     -9.09349574	     -7.54095996	      0.00000000	      0.01057824	      0.00000000	     -1.31751932	     -5.73786929	      4.96194030	    -10.25974787
      0.82500000	     -3.91180881	     -5.43950798	      6.42480497	      0.39864834	      0.98523578	      0.24586987	      9.58522450	     10.54277141	      4.91924265	    -20.34808744	      0.89046377	    -23.13760451	      3.59989003	     30.63411393	     -7.01002292	     -4.64542064	    -65.59789676	      2.41289460	     -9.07025179	     -7.18866840	      0.00000000	      0.01121106	      0.00000000	     -1.33165190	     -5.71961171	      4.80696994	    -10.05398315
      0.82916667	     -3.95205966	     -5.25305491	      6.38813993	      0.40399442	      0.98628393	      0.24541854	      9.03364009	     10.34270405	      5.06690177	    -19.95601467	      0.83837534	    -23.09282907	      3.64746713	     31.35818755	     -6.59666461	     -4.42430676	    -65.31105750	      2.19665819	     -9.02153779	     -6.90192360	      0.00000000	      0.01196274	      0.00000000	     -1.35623931	     -5.73148820	      4.65694547	     -9.91346565
      0.83333333	     -4.01587007	     -5.06700456	      6.36971224	      0.40959336	      0.98731035	      0.24483568	      8.44676338	     10.11576341	      5.15412467	    -19.46600827	      0.72675680	    -23.04785236	      3.68561040	     32.04421996	     -6.16502503	     -4.21574454	    -64.96019898	      1.92013962	     -8.99099527	     -6.73066688	      0.00000000	      0.01270091	      0.00000000	     -1.36437129	     -5.65763188	      4.51081639	     -9.73464105
      0.83750000	     -4.07567968	     -4.89133724	      6.35180107	      0.41515929	      0.98828502	      0.24427528	      7.87689502	      9.90330053	      5.23195426	    -19.00588165	      0.57921640	    -23.00654190	      3.71825468	     32.69907469	     -5.74296899	     -3.98704902	    -64.55826467	      1.62441834	     -8.94355079	     -6.62756285	      0.00000000	      0.01339192	      0.00000000	     -1.37226075	     -5.60347935	      4.37263582	     -9.55589490
      0.84166667	     -4.13769180	     -4.72626614	      6.32200762	      0.42072862	      0.98922412	      0.24370353	      7.31674162	      9.69813413	      5.30140027	    -18.55117421	      0.42128056	    -22.97885266	      3.74679844	     33.31907039	     -5.33173024	     -3.74311544	    -64.10633338	      1.29786818	     -8.87445843	     -6.60385756	      0.00000000	      0.01403441	      0.00000000	     -1.37113074	     -5.54246515	      4.25632503	     -9.37981025
      0.84583333	     -4.20338775	     -4.55520903	      6.31757490	      0.42634539	      0.99013996	      0.24316146	      6.73091724	      9.48993987	      5.37137048	    -18.04207681	      0.21784266	    -22.96760000	      3.77695565	     33.90997633	     -4.90578788	     -3.45345257	    -63.59375058	      0.96176539	     -8.76910967	     -6.66191885	      0.00000000	      0.01466575	      0.00000000	     -1.37386156	     -5.47100268	      4.09511695	     -9.19266204
      0.85000000	     -4.26098411	     -4.39824854	      6.28840406	      0.43188936	      0.99100680	      0.24261029	      6.18113682	      9.29869174	      5.43897523	    -17.60248313	      0.03004969	    -22.97983526	      3.80364345	     34.45187574	     -4.49904155	     -3.15843687	    -63.02593289	      0.58788941	     -8.65024275	     -6.78150634	      0.00000000	      0.01518847	      0.00000000	     -1.36188174	     -5.43099528	      3.98868193	     -9.03054507
      0.85416667	     -4.03153635	     -4.08096820	      6.42498550	      0.43765541	      0.99256794	      0.24165416	      5.13295384	      8.94390012	      5.48889894	    -16.84128235	     -0.78550933	    -23.73610018	      4.12861167	     34.26963325	     -3.70677593	     -2.21130466	    -61.48675981	      0.82610346	     -8.12169307	     -7.31001397	      0.00000000	      0.01410043	      0.00000000	     -1.33069264	     -5.71363542	      3.70689860	     -8.92018705
      0.85833333	     -4.10554203	     -3.97756718	      6.30657249	      0.44314176	      0.99323910	      0.24121581	      4.68541106	      8.81363012	      5.57213294	    -16.55081228	     -0.81278985	    -23.69737173	      4.16411967	     34.81286347	     -3.44280788	     -2.09038247	    -60.98677631	      0.28803062	     -8.08604240	     -7.43381994	      0.00000000	      0.01476071	      0.00000000	     -1.29939090	     -5.64937924	      3.67083452	     -8.83736042
      0.86250000	     -4.23199991	     -3.82951355	      6.26391320	      0.44883317	      0.99383773	      0.24077658	      4.17126749	      8.63787073	      5.70535440	    -16.04820463	     -0.92365698	    -23.64204672	      4.19673299	     35.37150440	     -3.08975995	     -1.86427500	    -60.42039663	     -0.24275247	     -7.97850902	     -7.63343266	      0.00000000	      0.01547703	      0.00000000	     -1.30793282	     -5.51568073	      3.52459557	     -8.69446512
